<svg xmlns="http://www.w3.org/2000/svg" viewBox="0 0 209.79 210.8"><defs><style>.cls-1{fill:#6ac6e7;}.cls-2{fill:#f45747;}</style></defs><g id="Layer_2" data-name="Layer 2"><g id="Layer_1-2" data-name="Layer 1"><g id="Social-"><g id="Event-1"><g id="reach_l_red-copy" data-name="reach l red-copy"><polygon id="Rectangle" class="cls-1" points="103.68 0 146.3 42.48 60.42 128.09 17.8 85.61 103.68 0"/><path id="Path" class="cls-2" d="M149.93,48.25l1-1,40.79,40.66-40.49,40.36L149.93,127A55.55,55.55,0,0,1,149.93,48.25Z"/><path id="Path-2" data-name="Path" class="cls-2" d="M0,173.17H8.58v3.26a16,16,0,0,1,4.2-3.34,9.74,9.74,0,0,1,4.42-.94,14,14,0,0,1,7.09,2.18l-3.91,7.72a8.35,8.35,0,0,0-4.78-1.71q-7,0-7,10.42v18.93H0Z"/><path id="Shape" class="cls-2" d="M67,193.44H41.67a11.39,11.39,0,0,0,2.83,7.17,8.32,8.32,0,0,0,6.43,2.63,8.18,8.18,0,0,0,5-1.5,20.5,20.5,0,0,0,4.47-5.57l6.9,4A28.16,28.16,0,0,1,64,205a18.18,18.18,0,0,1-3.82,3.3,14.88,14.88,0,0,1-4.39,1.9,20.63,20.63,0,0,1-5.13.61q-7.92,0-12.72-5.27t-4.78-14q0-8.67,4.65-14a15.79,15.79,0,0,1,12.42-5.3q7.81,0,12.36,5.14t4.5,14.15Zm-8.39-6.91q-1.71-6.76-8.26-6.76a8.3,8.3,0,0,0-2.79.47,8.14,8.14,0,0,0-2.38,1.35,9,9,0,0,0-1.84,2.14,9.93,9.93,0,0,0-1.16,2.82Z"/><path id="Shape-2" data-name="Shape" class="cls-2" d="M109.57,173.16h8.58v36.58h-8.58v-3.83q-5.26,4.89-11.33,4.89a16.41,16.41,0,0,1-12.67-5.49,20.29,20.29,0,0,1-5-14,19.62,19.62,0,0,1,5-13.7A16.12,16.12,0,0,1,98,172.15q6.45,0,11.56,5.26ZM89.32,191.34a12.64,12.64,0,0,0,2.84,8.56,9.34,9.34,0,0,0,7.35,3.34,9.79,9.79,0,0,0,7.66-3.23,13.81,13.81,0,0,0,0-17,9.73,9.73,0,0,0-7.59-3.26,9.44,9.44,0,0,0-7.35,3.3A12,12,0,0,0,89.32,191.34Z"/><path id="Path-3" data-name="Path" class="cls-2" d="M163.42,174.73V186a20.42,20.42,0,0,0-5.12-4.84,9.84,9.84,0,0,0-5.24-1.35,10.22,10.22,0,0,0-7.82,3.34,11.8,11.8,0,0,0-3.12,8.38,12.12,12.12,0,0,0,3,8.45,10.09,10.09,0,0,0,7.75,3.3,10.51,10.51,0,0,0,5.31-1.31,21.59,21.59,0,0,0,5.23-5v11.16a21.89,21.89,0,0,1-10.15,2.67,19.34,19.34,0,0,1-14-5.49,18.28,18.28,0,0,1-5.63-13.7,18.63,18.63,0,0,1,5.71-13.82,19.2,19.2,0,0,1,14-5.64,20.8,20.8,0,0,1,10.08,2.58Z"/><path id="Path-4" data-name="Path" class="cls-2" d="M178.87,146.75h8.31v29.67a14.22,14.22,0,0,1,9.77-4,12.56,12.56,0,0,1,9.74,4q3.1,3.45,3.1,11v22.25h-8.3V188.23c0-2.91-.51-5-1.53-6.32S197.3,180,195,180c-2.9,0-4.94.9-6.12,2.72s-1.76,5-1.73,9.46v17.55h-8.31Z"/></g></g></g></g></g></svg>